# xmcd
#
# Track frame offsets:
#	150
#	14684
#	27291
#	41452
#	54735
#	64866
#	73907
#	87760
#	100884
#	118125
#	130964
#	146970
#
# Disc length: 2089 seconds
# Revision: 0
# Processed by: cddbd v1.5.2PL0 Copyright (c) Steve Scherf et al.
# Submitted via: dBpowerAMP V12.0
#
DISCID=b508270c
DTITLE=Tennessee Ernie Ford - Hymns [Capitol] (L)
DYEAR=1956
DGENRE=Gospel
TTITLE0=Who At My Door Is Standing
TTITLE1=Rock Of Ages
TTITLE2=Softly And Tenderly
TTITLE3=Sweet Hour Of Prayer
TTITLE4=My Task
TTITLE5=Let The Lower Lights Be Burning
TTITLE6=Ninety And Nine
TTITLE7=Old Rugged Cross
TTITLE8=When They Ring Those Golden Bells
TTITLE9=In The Garden
TTITLE10=Ivory Palaces
TTITLE11=Others
EXTD=
EXTT0=
EXTT1=
EXTT2=
EXTT3=
EXTT4=
EXTT5=
EXTT6=
EXTT7=
EXTT8=
EXTT9=
EXTT10=
EXTT11=
PLAYORDER=
